# xmcd
#
# Track frame offsets: 
#        150
#        25965
#        68354
#        85133
#        113063
#        147298
#        176597
#        216543
#
# Disc length: 3320 seconds
#
# Revision: 1
# Processed by: cddbd v1.5.2PL0 Copyright (c) Steve Scherf et al.
# Submitted via: ExactAudioCopy v0.95b4
#
DISCID=6b0cf608
DTITLE=Jimmy Smith - Prayer Meetin'
DYEAR=1964
DGENRE=Soul-Jazz
TTITLE0=Prayer Meetin'
TTITLE1=I Almost Lost My Mind
TTITLE2=Stone Cold Dead in the Market
TTITLE3=When the Saints Go Marching In
TTITLE4=Red Top
TTITLE5=Picknickin'
TTITLE6=Lonesome Road
TTITLE7=Smith Walk
EXTD=Jimmy Smith: organ\nStanley Turrentine: tenor sax\nQuentin Warren
EXTD=: guitar\nSam Jones (tracks 7,8): bass\nDonald Bailey: drums\nRec
EXTD=orded by Rudy Van Gelder at the Van Gelder Studio, Englewood Clif
EXTD=fs US-NJ, 1963-02-08 (1-6) and 1960-06-13 (7,8).\nProduced by Alfre
EXTD=d Lion.\nTracks 1-6 originally issued in 1964 as Blue Note LPs BL
EXTD=P-4164/BST-84164.\nRemastered in 2003 by Rudy Van Gelder.\nReissu
EXTD=e produced by Michael Cuscuna.\nCD: Blue Note (RVG Edition) 90846
EXTD=(2004-03-23), UPC 724359084626.
EXTT0=(Jimmy Smith)
EXTT1=(Ivory Joe Hunter)
EXTT2=(Wilmoth Houdini)
EXTT3=(trad.)
EXTT4=(Gene Ammons)
EXTT5=(Jimmy Smith)
EXTT6=(Nat Shilkret/Gene Austin)
EXTT7=(Jimmy Smith)
PLAYORDER=
